<svg width="32" height="32" viewBox="0 0 32 32" fill="none" xmlns="http://www.w3.org/2000/svg">
<path d="M28 30H19.0588C18.4741 30 18 29.5259 18 28.9412C18 28.3564 18.4741 27.8824 19.0588 27.8824H26.8824C27.4346 27.8824 27.8824 27.4346 27.8824 26.8824V19.0588C27.8824 18.4741 28.3564 18 28.9412 18C29.5259 18 30 18.4741 30 19.0588V28C30 29.1046 29.1046 30 28 30Z" fill="white"/>
<path d="M4 2L12.9412 2C13.5259 2 14 2.47405 14 3.05882C14 3.6436 13.526 4.11765 12.9412 4.11765L5.11765 4.11765C4.56536 4.11765 4.11765 4.56536 4.11765 5.11765L4.11765 12.9412C4.11765 13.5259 3.64359 14 3.05882 14C2.47405 14 2 13.5259 2 12.9412L2 4C2 2.89543 2.89543 2 4 2Z" fill="white"/>
<path d="M30 4L30 12.9412C30 13.5259 29.5259 14 28.9412 14C28.3564 14 27.8824 13.5259 27.8824 12.9412L27.8824 5.11765C27.8824 4.56536 27.4346 4.11765 26.8824 4.11765L19.0588 4.11765C18.4741 4.11765 18 3.64359 18 3.05882C18 2.47405 18.4741 2 19.0588 2L28 2C29.1046 2 30 2.89543 30 4Z" fill="white"/>
<path d="M2 28L2 19.0588C2 18.4741 2.47405 18 3.05882 18C3.6436 18 4.11765 18.474 4.11765 19.0588L4.11765 26.8824C4.11765 27.4346 4.56536 27.8824 5.11765 27.8824L12.9412 27.8824C13.5259 27.8824 14 28.3564 14 28.9412C14 29.5259 13.5259 30 12.9412 30L4 30C2.89543 30 2 29.1046 2 28Z" fill="white"/>
</svg>
