<svg width="32" height="32" viewBox="0 0 32 32" fill="none" xmlns="http://www.w3.org/2000/svg">
<path d="M20 18L28.9412 18C29.5259 18 30 18.4741 30 19.0588C30 19.6436 29.5259 20.1176 28.9412 20.1176L21.1176 20.1176C20.5654 20.1176 20.1176 20.5654 20.1176 21.1176L20.1176 28.9412C20.1176 29.5259 19.6436 30 19.0588 30C18.4741 30 18 29.526 18 28.9412L18 20C18 18.8954 18.8954 18 20 18Z" fill="white"/>
<path d="M12 14L3.05883 14C2.47405 14 2 13.5259 2 12.9412C2 12.3564 2.47405 11.8824 3.05882 11.8824L10.8824 11.8824C11.4346 11.8824 11.8824 11.4346 11.8824 10.8824L11.8824 3.05882C11.8824 2.47405 12.3564 2 12.9412 2C13.5259 2 14 2.47405 14 3.05882L14 12C14 13.1046 13.1046 14 12 14Z" fill="white"/>
<path d="M18 12L18 3.05882C18 2.47405 18.4741 2 19.0588 2C19.6436 2 20.1176 2.47405 20.1176 3.05882L20.1176 10.8824C20.1176 11.4346 20.5654 11.8824 21.1176 11.8824L28.9412 11.8824C29.5259 11.8824 30 12.3564 30 12.9412C30 13.5259 29.5259 14 28.9412 14L20 14C18.8954 14 18 13.1046 18 12Z" fill="white"/>
<path d="M14 20L14 28.9412C14 29.5259 13.5259 30 12.9412 30C12.3564 30 11.8824 29.5259 11.8824 28.9412L11.8824 21.1176C11.8824 20.5654 11.4346 20.1176 10.8824 20.1176L3.05882 20.1176C2.47405 20.1176 2 19.6436 2 19.0588C2 18.4741 2.47405 18 3.05882 18L12 18C13.1046 18 14 18.8954 14 20Z" fill="white"/>
</svg>
